<svg width="25" height="23" fill="none" xmlns="http://www.w3.org/2000/svg"><path d="M0 22.862V8.71C0 4.333 3.078.772 6.861.772h11.276C21.921.772 25 4.333 25 8.71v2.44c0 4.378-3.078 7.939-6.861 7.939H7.02L0 22.862zm6.861-20.32c-2.94 0-5.331 2.767-5.331 6.168v11.378l5.153-2.77H18.14c2.94 0 5.331-2.767 5.331-6.168V8.709c0-3.401-2.392-6.168-5.333-6.168H6.861zm.505 6.034c.803 0 1.454.753 1.454 1.682 0 .93-.65 1.683-1.454 1.683-.804 0-1.455-.753-1.455-1.683s.651-1.682 1.455-1.682zm10.267 0c.804 0 1.455.753 1.455 1.682 0 .93-.651 1.683-1.455 1.683-.803 0-1.454-.753-1.454-1.683s.65-1.682 1.454-1.682zm-5.134 0c.803 0 1.454.753 1.454 1.682 0 .93-.65 1.683-1.454 1.683-.804 0-1.455-.753-1.455-1.683s.651-1.682 1.455-1.682z" fill="#B5C3CB"/></svg>