<svg width="249" height="120" fill="none" xmlns="http://www.w3.org/2000/svg"><g opacity=".5" fill="#fff"><path d="M177.064 29.892c7.44-4.567 15.824-7.417 24.229-8.222 7.164-.702 14.608.076 21.697 2.222l.244-2.848c-7.37-2.128-14.873-2.868-22.206-2.167-8.828.853-17.615 3.836-25.423 8.624-7.809 4.787-14.435 11.285-19.189 18.783a55.333 55.333 0 00-3.552 6.523c-12.183 3.615-23.024 10.326-32.964 17.141a580.874 580.874 0 00-7.214 5.035c-8.616 6.047-17.514 12.295-27.072 16.932-10.784 5.233-22.865 8.465-34.94 9.348-12.414.91-24.456-.555-35.794-4.366a87.064 87.064 0 01-13.443-5.852l-.258 3.014c4.152 2.146 8.4 3.979 12.82 5.463a91.418 91.418 0 0021.41 4.435 98.137 98.137 0 0015.475.08c12.413-.909 24.852-4.237 35.957-9.624 9.747-4.733 18.749-11.042 27.44-17.153a555.869 555.869 0 017.198-5.008c9.152-6.267 19.036-12.43 29.977-16.068-3.304 8.699-4.186 17.857-2.388 26.252 1.327 6.227 4.238 12.086 8.409 16.948 4.323 5.044 9.721 8.654 15.624 10.432 6.039 1.833 12.76 1.583 18.937-.658 6.338-2.312 11.471-6.559 14.478-11.954 3.322-5.955 4.075-13.278 2.115-20.609-1.854-6.93-6.057-13.376-11.548-17.693-5.32-4.177-11.788-6.886-19.185-8.037-6.694-1.049-13.952-.733-20.987.903-.157.043-.313.071-.471.114a51.01 51.01 0 012.334-4.067c4.53-7.167 10.85-13.355 18.29-17.923zm-19.531 24.574c6.693-1.554 13.585-1.845 19.933-.854 6.929 1.084 12.951 3.6 17.891 7.478 5.019 3.942 8.877 9.855 10.57 16.211 1.768 6.63 1.106 13.218-1.853 18.533-5.454 9.802-18.718 14.766-30.184 11.308-5.386-1.623-10.332-4.942-14.313-9.578a35.773 35.773 0 01-7.802-15.708c-1.83-8.51-.69-17.911 3.099-26.708a47.4 47.4 0 012.659-.682z"/><path d="M249 30.307L222.441 6.062l-.387 10.674 18.594 10.137-18.736-6.196-.001.01v-.012l-8.199 2.704 7.983 3.282-.274 7.584L249 30.307z"/></g></svg>